<?xml version="1.0"?>
<svg xmlns:rdf="http://www.w3.org/1999/02/22-rdf-syntax-ns#" xmlns="http://www.w3.org/2000/svg" xmlns:cc="http://creativecommons.org/ns#" xmlns:dc="http://purl.org/dc/elements/1.1/" xmlns:svg="http://www.w3.org/2000/svg" id="svg7623" viewBox="0 0 458.11 301.88" version="1.1">
  <g id="layer1" transform="translate(-10.58 -24.92)">
    <path id="path4063-4" d="m67.784 154.48c-1.3752-0.6659-1.783-2.0992-1.4966-5.2601l0.25883-2.8563-3.518-0.7626c-1.9349-0.4194-3.6855-0.7641-3.8902-0.766-0.20466-0.01-0.79982 1.0672-1.3226 2.3759-0.52274 1.3086-1.3233 2.7808-1.7789 3.2716-1.0468 1.1274-2.8064 1.1554-3.8997 0.062-0.99338-0.9934-0.9055-3.067 0.25448-6.0031l0.7412-1.8762-0.89769-0.8363c-1.2614-1.1752-1.0515-3.3661 0.4279-4.4659l1.0837-0.8058 4.2699 1.4334c5.3958 1.8115 9.2553 2.5968 14.427 2.9357 3.5274 0.2312 4.2117 0.3923 4.9956 1.1762 1.1026 1.1026 1.1641 2.5234 0.1628 3.76-0.55507 0.6855-1.289 0.9753-2.873 1.1345l-2.1274 0.2138-0.46803 3.1724c-0.2574 1.7449-0.48142 3.2125-0.4978 3.2614-0.0657 0.1962-2.391 1.2973-2.6868 1.2722-0.17445-0.014-0.69831-0.2114-1.1642-0.437zm1.1152-15.825c-15.823-2.0533-30.154-12.277-37.564-26.798-3.6741-7.1997-5.1362-13.576-5.1243-22.346 0.009-6.8064 0.60122-10.428 2.6576-16.259 6.9379-19.673 25.637-32.92 46.457-32.913 27.418 0.01 49.407 21.999 49.417 49.417 0.006 16.545-8.1953 31.787-22.128 41.122-9.5053 6.3693-22.126 9.2801-33.716 7.776zm12.448-5.9476c17.359-2.4144 31.379-14.803 36.153-31.946 1.0132-3.6387 1.0887-4.4307 1.0715-11.251-0.0158-6.2766-0.14295-7.7848-0.88028-10.441-2.8483-10.263-8.3568-18.449-16.514-24.541-13.684-10.22-33.48-11.151-48.112-2.2614-21.418 13.012-27.572 40.71-13.712 61.721 2.164 3.2805 7.6401 8.8405 10.964 11.132 9.3336 6.4345 20.206 9.093 31.03 7.5875zm20.771 5.1614c-0.58906-0.5891-0.7819-1.2173-0.69398-2.2609 0.10945-1.2991 0.42242-1.6577 3.0959-3.5468 9.7362-6.8801 16.517-16.051 19.985-27.03 2.9818-9.4392 2.9989-21.037 0.0452-30.787-0.92041-3.0384-3.7259-9.0805-5.9958-12.913-1.3175-2.2245-1.106-3.6338 0.68438-4.5596 1.7528-0.90635 3.0091-0.24764 4.7902 2.5117 1.2564 1.9465 3.8872 7.2542 5.3884 10.871l0.44229 1.0656 2.8318-0.80136c3.2571-0.9217 4.7018-0.62221 5.5054 1.1414 0.79943 1.7546-0.0714 3.1116-2.6052 4.0596-1.1841 0.44305-2.3693 0.80832-2.6338 0.81157-1.3879 0.0172-1.4893 0.54442-0.88127 4.5788 0.32673 2.1676 0.59511 6.3949 0.59639 9.3938 0 2.999 0.0469 5.4589 0.10148 5.4666 4.4746 0.62437 6.5312 1.2401 7.3653 2.2048 1.0871 1.2572 0.91958 2.7236-0.44244 3.8745-0.88919 0.75131-2.3496 0.75348-6.6966 0.01-1.451-0.24809-1.4615-0.23987-1.8977 1.4832-1.917 7.572-5.2686 14.446-10.565 21.669-0.64719 0.8825-0.61051 0.9482 1.7728 3.1812 2.7711 2.5963 3.1591 4.0205 1.5158 5.5643-1.4496 1.3618-2.7107 1.0958-5.2959-1.1171-1.2718-1.0886-2.4564-1.9808-2.6326-1.9828-0.17611 0-1.6037 1.0798-3.1725 2.4038-6.2462 5.2718-8.8765 6.4394-10.608 4.7082zm-64.464-5.1045-2.2907-1.9548-1.5378 1.2607c-2.1883 1.7941-3.1514 2.2685-4.0573 1.9983-1.436-0.4283-2.1811-1.4028-2.1811-2.8532 0-1.152 0.32292-1.6986 1.8354-3.1072 1.7842-1.6615 1.8171-1.7343 1.1779-2.6054-0.3617-0.4928-1.8312-2.6444-3.2655-4.7815-1.4344-2.137-2.7254-3.8322-2.869-3.7673-0.14361 0.065-1.5581 0.6394-3.1434 1.2764l-2.8822 1.1583-1.0776-0.8009c-1.1806-0.8775-1.6038-2.7396-0.91507-4.0264 0.22453-0.4197 1.5736-1.2706 2.998-1.8911 1.4243-0.62049 2.5896-1.3249 2.5896-1.5653 0-0.24041-0.45113-1.7622-1.0025-3.3816-1.7608-5.1717-2.597-10.085-2.843-16.706l-0.23135-6.2265-1.0349-0.19208c-0.56919-0.10561-1.8776-0.30301-2.9076-0.43844-1.3587-0.17889-2.0934-0.52708-2.6768-1.2687-1.0265-1.305-1.0146-2.1268 0.0505-3.4809 0.83111-1.0566 0.94742-1.0824 4.2481-0.94564l3.3935 0.14058 0.93465-3.5691c1.1094-4.2364 4.0826-11.458 5.3405-12.971 1.2502-1.504 2.6516-1.7517 3.9833-0.70415 1.4112 1.11 1.3924 2.5562-0.071 5.4576-1.5855 3.1435-3.3834 8.3741-4.2557 12.381-1.0348 4.7534-1.0348 15.868 0 20.621 2.3124 10.622 7.1972 19.374 15.156 27.154 3.155 3.084 3.7269 3.836 3.7269 4.9002 0 1.5827-1.2166 2.8434-2.7438 2.8434-0.81271 0-1.8401-0.5823-3.4483-1.9546zm0.64024-80.811c-1.2756-0.46901-1.9828-1.4617-1.9828-2.7833 0-1.3718 0.20526-1.6198 4.0732-4.9202l1.099-0.93772-1.5945-2.5776c-1.8474-2.9865-1.9676-4.0255-0.62158-5.3715 1.7417-1.7418 3.0643-1.1986 5.3781 2.2086 0.88512 1.3034 1.6953 2.3698 1.8004 2.3698 0.10508 0 2.0168-0.87519 4.2482-1.9449 3.7545-1.7998 8.549-3.5157 11.718-4.1934l1.3157-0.28137-0.27121-3.4667c-0.26969-3.4477-0.26521-3.4713 0.81977-4.3247 2.3812-1.873 4.2128-0.46742 4.9298 3.7831l0.47028 2.788 7.012 0.2247c4.3432 0.13923 8.144 0.47976 9.9862 0.8947 1.6358 0.36846 3.2357 0.69258 3.5553 0.7202 0.37309 0.0321 0.91284-0.86953 1.5074-2.5186 1.1527-3.1969 1.8367-3.9744 3.4964-3.9744 2.5804 0 3.3478 1.8858 2.1634 5.3165-0.44474 1.2883-0.80862 2.5449-0.80862 2.7925 0 0.24763 2.0076 1.4673 4.4613 2.7104 6.1625 3.1222 8.3923 4.8607 8.5452 6.6628 0.14185 1.6715-0.95083 2.8767-2.602 2.8701-0.59849-0.005-2.2418-0.75556-3.6631-1.6788-12.728-8.2678-29.671-10.415-44.083-5.5865-5.8169 1.9489-11.947 5.3217-16.591 9.1278-1.6195 1.3275-3.3209 2.4209-3.6421 2.3406-0.0688-0.0173-0.39286-0.12976-0.72002-0.25003z" fill="#b85e53"/>
    <g id="g7710" fill="#b85e53" transform="translate(224.15 -42.698)">
      <path id="rect7952" d="m128.21 67.618v130h12.451v-130h-12.451zm103.87 15.496v114.5h12.451v-114.5h-12.451zm-83.099 1.3905v113.11h12.458v-113.11h-12.458zm20.773 5.3341v107.78h12.458v-107.78h-12.458zm41.553 22.991v84.789h12.451v-84.789h-12.451zm-20.773 20.11v64.679h12.451v-64.679h-12.451z"/>
      <path id="path13960" d="m1784.4 637.71c0 13.988-11.705 25.327-26.144 25.327s-26.144-11.339-26.144-25.327 11.705-25.327 26.144-25.327 26.144 11.34 26.144 25.327z" style="color:#000000" transform="matrix(.55325 0 0 .55325 -761.73 -270.51)"/>
    </g>
    <path id="path3781" d="m138.67 326.28c-2.564-0.3145-2.8448-0.5929-2.2815-2.2618 0.3533-1.0468 0.6866-3.4751 0.7406-5.3964 0.091-3.2184-0.1641-3.6213-3.2383-5.1228-2.9678-1.4495-3.9209-1.5148-8.621-0.5901-2.9064 0.5718-6.5769 1.656-8.1566 2.4093-3.1844 1.5185-3.1504 1.5344-10.539-4.953l-3.1923-2.8028 3.1685-2.6118c6.9475-5.7267 1.7588-12.918-11.452-15.872l-5.029-1.1245-1.9339-5.625c-2.8304-8.2322-2.7329-8.6815 1.8844-8.6815 4.194 0 6.5992-2.0773 6.5992-5.6993 0-3.0226-4.261-10.595-7.7208-13.72-3.0567-2.7615-3.213-3.1499-2.5701-6.3879 0.3764-1.8962 1.3073-5.12 2.0687-7.1641l1.3842-3.7165 2.2269 1.7516c4.1398 3.2564 8.8657 1.8366 10.797-3.2438 1.0549-2.7745 1.0205-10.404-0.064-14.185-0.7735-2.6972-0.6134-3.2767 1.5283-5.5334 1.3158-1.3864 3.8516-3.6848 5.6353-5.1077l3.243-2.5869 1.2995 3.1102c2.8732 6.8765 9.9987 5.4304 15.186-3.0818 1.5868-2.6044 3.1031-5.783 3.3693-7.0636 0.433-2.0826 1.0577-2.4282 5.9192-3.2748 9.0546-1.5768 9.1115-1.5573 8.9368 3.0603-0.2052 5.4218 2.4413 7.7666 7.9189 7.0159 4.1565-0.5698 10.14-3.3159 13.069-5.9983l1.9271-1.7647 4.7231 1.9169c2.5978 1.0544 5.5723 2.5118 6.6101 3.2387l1.887 1.3216-2.2059 2.6215c-2.8107 3.3403-2.7957 6.026 0.05 8.8712 2.6323 2.6322 10.169 4.4974 15.669 3.8775 3.5042-0.395 3.7215-0.2703 6.304 3.6161 5.1484 7.7478 5.6723 9.7016 2.6011 9.7016-1.0939 0-2.9074 0.6433-4.0299 1.4296-1.7595 1.2323-1.9807 1.9642-1.604 5.3061 0.5107 4.531 3.1293 7.7127 10.024 12.18 4.4978 2.914 4.5848 3.0511 4.5848 7.2282v4.2579l-2.9636-0.9096c-6.4552-1.9811-9.8982 1.3806-8.9192 8.7089 0.5008 3.7488 4.1245 11.87 5.7429 12.87 0.8749 0.5407-2.8019 8.6724-5.5357 12.243-1.3336 1.7417-1.3411 1.7415-2.6558-0.098-0.725-1.0145-2.5106-2.3384-3.9678-2.942-2.2594-0.9359-2.9838-0.8785-4.9196 0.3899-3.291 2.1564-5.824 8.5464-5.9394 14.983l-0.097 5.4202-5.7808 3.1311c-3.1795 1.7221-6.1749 3.131-6.6564 3.131-0.4816 0-1.1259-1.5651-1.4317-3.4782-1.2426-7.7706-8.2775-7.7054-16.091 0.1491-2.4906 2.5038-4.7528 5.2595-5.0272 6.1239-0.4041 1.2731-1.3587 1.5451-5.0248 1.4319-2.4892-0.077-5.8416-0.3011-7.4498-0.4983zm21.186-16.39c16.631-3.5234 29.932-14.858 35.995-30.673 3.075-8.0216 3.8035-20.879 1.6515-29.148-4.2788-16.441-16.957-30.024-32.704-35.038-8.4736-2.6981-21.12-2.674-29.604 0.056-35.045 11.279-45.783 55.622-19.77 81.636 11.611 11.611 28.356 16.573 44.432 13.167z" fill="#b85e53"/>
    <g id="Camada_x0020_1" fill-rule="evenodd" fill="#b85e53" transform="matrix(.72008 0 0 .72008 170.94 -17.011)">
      <g id="_11752728" fill="#b85e53">
        <g id="g20">
          <g id="g22" fill="#b85e53">
            <g id="g24" fill="#b85e53">
              <path id="_11749056" d="m39.298 156.89c5.3885-7.3871 10.915-13.375 19.862-21.3 9.2031-7.9045 17.27-13.778 28.793-20.896 12.027-7.2324 21.508-12.001 33.74-17.086 12.887-5.1915 22.215-8.0029 33.224-10.224-4.8188 5.067-14.457 15.201-14.457 15.201-7.3639 0.5171-13.878 1.789-23.273 4.6926-9.4608 3.0911-17.064 6.3008-27.128 11.502-10.516 5.591-18.198 10.472-27.401 17.26-9.9214 7.4801-16.427 13.367-23.362 20.85z" class="fil0"/>
              <path id="_188840392" d="m44.492 150.95c4.7368-5.3671 9.1805-9.7292 15.602-15.241 9.1353-7.6464 17.076-13.306 28.329-20.105 11.593-6.8207 20.677-11.283 32.334-15.987 12.192-4.7563 20.968-7.2813 31.269-9.194-2.8912 3.0402-8.674 9.1208-8.6738 9.1205-8.0757 0.8319-15.138 2.39-25.227 5.7229-10.038 3.4805-18.038 6.9975-28.534 12.601-10.778 5.9159-18.585 11.01-27.865 18.051-6.9104 5.3457-11.813 9.6472-17.233 15.031z" class="fil1"/>
              <path id="_186378600" d="m50.513 144.89c3.2855-3.1654 6.3915-5.936 10.218-9.1011 9.1595-7.4315 17.033-12.894 28.1-19.395 11.21-6.4109 19.926-10.562 31.034-14.865 11.491-4.2894 19.703-6.5017 29.27-8.0675-0.9638 1.0134-2.8914 3.0402-2.8914 3.0402-8.8093 1.1819-16.44 3.0546-27.227 6.8495-10.588 3.8864-18.954 7.7147-29.834 13.722-10.959 6.2185-18.83 11.508-28.094 18.761-3.9409 3.14-7.1487 5.8914-10.575 9.0554z" class="fil2"/>
            </g>
          </g>
        </g>
        <path id="_11752392" d="m39.298 156.89c5.7731-7.088 13.154-14.247 21.612-21.075 8.4249-6.8012 17.962-13.303 28.097-19.078 10.151-5.7842 20.493-10.614 30.434-14.294 9.9458-3.6815 19.561-6.2481 28.248-7.4585" class="fil3"/>
        <g id="g30">
          <g id="g32" fill="#b85e53">
            <g id="g34" fill="#b85e53">
              <path id="_188841424" d="m145.11 201.21c-9.0917-0.973-17.041-2.7658-28.378-6.5506-11.447-4.0181-20.567-8.0674-32.493-14.488-12.276-6.7988-21.148-12.626-31.667-20.676-10.94-8.565-18.038-15.237-25.467-23.661l20.393 4.9192c4.1296 6.1185 8.4881 11.124 15.7 17.808 7.4046 6.6459 13.991 11.629 23.524 17.742 10.102 6.3127 18.166 10.524 28.649 15.1 11.438 4.8518 19.79 7.5431 29.738 9.807z" class="fil0"/>
              <path id="_206699112" d="m137.37 199.68c-7.013-1.4173-13.019-3.0871-20.999-5.8906-11.194-4.0905-20.057-8.1337-31.576-14.482-11.704-6.6297-20.109-12.264-30.012-20.008-10.215-8.1798-16.791-14.519-23.597-22.483 4.0785 0.9838 12.236 2.9516 12.236 2.9516 4.7577 6.5771 9.6388 11.915 17.57 18.986 8.0337 6.953 15.078 12.122 25.18 18.411 10.514 6.377 18.825 10.589 29.566 15.107 8.0839 3.311 14.261 5.4062 21.633 7.4082z" class="fil1"/>
              <path id="_203499608" d="m129.11 197.5c-4.3855-1.2633-8.3351-2.5665-12.991-4.2981-11.017-4.2174-19.681-8.3038-30.847-14.638-11.159-6.5036-19.108-11.974-28.39-19.443-9.4608-7.8073-15.482-13.812-21.622-21.315 1.3595 0.328 4.0786 0.984 4.0786 0.984 5.4284 7.0382 10.865 12.709 19.545 20.154 8.6585 7.2253 16.16 12.558 26.801 18.976 10.866 6.3821 19.379 10.553 30.295 14.95 4.6876 1.8419 8.6785 3.2459 13.13 4.63z" class="fil2"/>
            </g>
          </g>
        </g>
        <path id="_206699416" d="m145.11 201.21c-9.025-1.4556-18.915-4.2677-29.058-8.1788-10.1-3.89-20.502-8.9-30.572-14.79-10.084-5.9-19.439-12.44-27.595-19.21-8.161-6.77-15.192-13.82-20.584-20.73" class="fil3"/>
        <path id="_188840176" d="m51.562 136.94c1.0487 6.921-3.5738 13.361-10.325 14.384-6.7509 1.023-13.074-3.7584-14.122-10.679-1.0488-6.921 3.5737-13.361 10.325-14.384 6.7509-1.023 13.074 3.7584 14.122 10.679z" class="fil4"/>
        <g id="g41">
          <g id="g43" fill="#b85e53">
            <g id="g45" fill="#b85e53">
              <path id="_201969216" d="m132.77 85.586c3.8246 8.1746 6.3504 15.869 8.8674 27.557 2.3876 12.008 3.5208 22.073 4.0152 35.86 0.3449 14.339-0.2226 25.207-1.9378 38.688-1.9715 14.197-4.2719 23.927-7.9741 34.827-1.9707-6.7266-5.912-20.18-5.912-20.18 3.3281-6.8178 5.5407-13.266 7.751-23.198 2.0602-10.041 3.0471-18.485 3.5005-30.094 0.3315-12.195-0.1259-21.444-1.5403-32.963-1.6558-12.359-3.6187-20.896-6.7699-30.496z" class="fil0"/>
              <path id="_203009568" d="m135.44 92.996c2.3623 6.6766 3.9889 12.65 5.6365 20.935 2.1968 11.836 3.204 21.68 3.5564 35.083 0.2003 13.754-0.4347 24.116-2.1932 36.9-2.0008 13.357-4.2707 22.453-7.8807 32.569-1.1824-4.0361-3.5472-12.108-3.5472-12.108 3.4162-7.6014 5.6604-14.689 7.8443-25.456 2.0101-10.746 2.9283-19.692 3.2452-31.882 0.1797-12.575-0.4032-22.041-1.9991-33.741-1.2683-8.6522-2.6175-15.001-4.6622-22.3z" class="fil1"/>
              <path id="_206669992" d="m137.8 101.24c1.1405 4.3619 2.0234 8.3787 2.8967 13.23 1.9967 11.762 2.8666 21.456 3.0517 34.557 0.0329 13.218-0.69 23.096-2.521 35.2-2.0559 12.5-4.3103 20.932-7.8492 30.225-0.3941-1.3454-1.1825-4.0361-1.1825-4.0358 3.4869-8.43 5.7429-16.174 7.8759-27.8 1.9331-11.431 2.7627-20.858 2.9174-33.582 0.007-12.873-0.7136-22.489-2.5037-34.267-0.7958-4.9406-1.6146-9.042-2.6853-13.526z" class="fil2"/>
            </g>
          </g>
        </g>
        <path id="_188840296" d="m132.77 85.586c3.3713 8.3697 6.0156 18.266 7.8188 29.026 1.8041 10.767 2.7645 22.46 2.7778 34.412 0.0132 11.933-0.9249 23.63-2.7192 34.391-1.7994 10.792-4.4583 20.674-7.8625 29.012" class="fil3"/>
        <path id="_188840872" d="m144.42 208.56c1.0487 6.921-3.5738 13.361-10.325 14.384-6.7509 1.023-13.074-3.7583-14.122-10.679-1.0487-6.921 3.5738-13.361 10.325-14.384 6.7508-1.0229 13.074 3.7584 14.122 10.679z" class="fil5"/>
        <path id="_206670272" d="m158.47 94.653c1.0488 6.9211-3.5737 13.361-10.325 14.384-6.7509 1.023-13.074-3.7583-14.122-10.679-1.0487-6.921 3.5738-13.361 10.325-14.384 6.7508-1.0229 13.074 3.7584 14.122 10.679z" class="fil6"/>
        <g id="g53">
          <path id="_11749296" d="m153.16 93.13 0.1662 2.5344-0.0658 0.0033-0.0651-0.0001-0.0643-0.0032-0.0636-0.0065-0.0626-0.0095-0.0617-0.0125-0.0606-0.0155-0.0594-0.0184-0.0582-0.0211-0.0568-0.0239-0.0554-0.0265-0.054-0.029-0.0523-0.0316-0.0506-0.034-0.049-0.0364-0.047-0.0386-0.0451-0.0409-0.0432-0.0429-0.041-0.0451-0.0388-0.047-0.0366-0.0489-0.0342-0.0508-0.0317-0.0525-0.0292-0.0542-0.0267-0.0558-0.0239-0.0574-0.0211-0.0588-0.0183-0.0603-0.0153-0.0615-0.0122-0.0628-0.009-0.064-0.006-0.0651-0.003-0.0653 0.0007-0.0647 0.004-0.0641 0.007-0.0632 0.0102-0.0624 0.0133-0.0614 0.0162-0.0604 0.0191-0.0593 0.0218-0.058 0.0246-0.0568 0.0273-0.0553 0.0298-0.0539 0.0323-0.0524 0.0347-0.0507 0.0371-0.049 0.0393-0.0472 0.0416-0.0453 0.0437-0.0433 0.0457-0.0412 0.0477-0.0391 0.0496-0.0368 0.0514-0.0346 0.0532-0.0321 0.0548-0.0296 0.0564-0.027 0.058-0.0244 0.0594-0.0216 0.0608-0.0188 0.0621-0.0158 0.0633-0.0129 0.0645-0.0097 0.0655-0.0066zm18.776 1.6841-0.8294 2.4126h0.0001l-0.4371-0.1403-0.4452-0.1348-0.4533-0.1291-0.4616-0.1235-0.4695-0.1178-0.4777-0.112-0.4857-0.1064-0.4933-0.1005-0.5014-0.0946-0.5091-0.0889-0.5168-0.0829-0.5245-0.077-0.5321-0.071-0.5397-0.0651-0.5471-0.0591-0.5545-0.053-0.5619-0.0469-0.5692-0.0409-0.5765-0.0347-0.5835-0.0286-0.5908-0.0224-0.5978-0.0162-0.6048-0.01-0.6118-0.0038-0.6186 0.0026-0.6254 0.0087-0.632 0.0151-0.639 0.0215-0.6454 0.0276-0.652 0.0342-0.6586 0.0406-0.6651 0.0469-0.1662-2.5344 0.6879-0.0485 0.6818-0.042 0.676-0.0354 0.6696-0.0288 0.6634-0.0223 0.6574-0.0157 0.6508-0.0091 0.6446-0.0026 0.6382 0.004 0.6316 0.0104 0.6252 0.017 0.6188 0.0234 0.6123 0.03 0.6055 0.0365 0.5988 0.0429 0.5921 0.0495 0.5855 0.056 0.5785 0.0625 0.5717 0.0689 0.5649 0.0754 0.5577 0.082 0.551 0.0883 0.5439 0.0949 0.5366 0.1014 0.5297 0.1079 0.5223 0.1144 0.5151 0.1208 0.5079 0.1274 0.5006 0.1339 0.4933 0.1405 0.4856 0.147 0.4781 0.1535h0.0001zm11.147 8.4051-2.231 1.2644v0.0001l-0.1779-0.3044-0.1862-0.2993-0.1943-0.2944-0.2025-0.2892-0.2106-0.2843-0.219-0.2794-0.227-0.2747-0.2351-0.2696-0.2433-0.2646-0.2516-0.2598-0.2598-0.2549-0.268-0.25-0.2762-0.2452-0.2843-0.2401-0.2926-0.2352-0.3007-0.2303-0.309-0.2253-0.3171-0.2202-0.3254-0.2152-0.3335-0.2101-0.3416-0.205-0.3497-0.1998-0.358-0.1945-0.3661-0.1895-0.3741-0.1842-0.3821-0.1788-0.3901-0.1734-0.398-0.1681-0.4059-0.1626-0.4141-0.1572-0.4217-0.1516-0.4297-0.1461 0.8294-2.4126 0.4709 0.1601 0.4637 0.1668 0.4565 0.1732 0.4493 0.18 0.4418 0.1865 0.4343 0.1932 0.4269 0.1998 0.4193 0.2064 0.4115 0.2129 0.404 0.2197 0.3963 0.2264 0.3884 0.233 0.3805 0.2397 0.3724 0.2464 0.3643 0.253 0.3562 0.2597 0.3479 0.2663 0.3396 0.273 0.3313 0.2799 0.3224 0.2862 0.314 0.2928 0.3052 0.2997 0.2964 0.306 0.2875 0.3128 0.2785 0.3192 0.2692 0.3255 0.26 0.332 0.2508 0.3385 0.2413 0.3448 0.2317 0.351 0.2222 0.3571 0.2125 0.3634v0.0001zm-10.138 36.183-2.0106-1.5494 0.9695-1.2578 0.9306-1.2506 0.8912-1.2428 0.8516-1.2344 0.8112-1.2253 0.7707-1.2154 0.7294-1.2051 0.6881-1.1938 0.6461-1.182 0.6038-1.1695 0.5611-1.1563 0.5181-1.1423 0.4746-1.1275 0.4308-1.1121 0.3867-1.0959 0.3424-1.0791 0.2976-1.0614 0.2528-1.043 0.2077-1.024 0.1625-1.0042 0.1171-0.9838 0.0716-0.9628 0.0263-0.9412-0.0194-0.9192-0.0649-0.8969-0.1104-0.8744-0.156-0.8513-0.2018-0.8287-0.2478-0.8058-0.294-0.7832-0.3408-0.7608-0.3883-0.7387 2.231-1.2644 0.4615 0.8779 0.4048 0.9036 0.3482 0.9274 0.2922 0.95 0.2366 0.9715 0.1818 0.9915 0.1276 1.0104 0.0745 1.0283 0.022 1.0456-0.0295 1.0618-0.0802 1.0772-0.1299 1.0922-0.1791 1.1066-0.2271 1.1202-0.2748 1.1338-0.3216 1.1466-0.3676 1.1591-0.4133 1.1711-0.458 1.1827-0.5026 1.1939-0.5463 1.2045-0.5895 1.2149-0.6324 1.2247-0.6745 1.2342-0.7165 1.243-0.7576 1.2515-0.7985 1.2594-0.8388 1.2669-0.8788 1.274-0.9182 1.2804-0.9572 1.2864-0.9957 1.2918zm-50.011 41.218-1.2694-2.193 1.9904-1.1657 1.9661-1.1784 1.9413-1.1906 1.9161-1.2021 1.8902-1.2131 1.8641-1.2235 1.8374-1.233 1.8101-1.2422 1.7825-1.2507 1.7545-1.2585 1.7258-1.2658 1.6967-1.2723 1.6672-1.2785 1.6371-1.2838 1.6066-1.2886 1.5757-1.2927 1.5442-1.2962 1.5123-1.2992 1.4799-1.3015 1.4469-1.3031 1.4136-1.3041 1.3798-1.3045 1.3454-1.3042 1.3107-1.3034 1.2754-1.3019 1.2396-1.2997 1.2035-1.2969 1.1667-1.2935 1.1295-1.2895 1.092-1.2846 1.0537-1.2792 1.0151-1.2732 2.0106 1.5494-1.0413 1.306-1.0795 1.3104-1.1172 1.3146-1.1547 1.3181-1.1915 1.3209-1.2279 1.3233-1.2638 1.3251-1.2994 1.3263-1.3343 1.327-1.369 1.327-1.403 1.3265-1.4366 1.3253-1.4699 1.3237-1.5027 1.3215-1.5349 1.3186-1.5666 1.3152-1.5981 1.3111-1.629 1.3064-1.6593 1.3012-1.6894 1.2955-1.7189 1.2891-1.748 1.282-1.7765 1.2743-1.8047 1.2663-1.8323 1.2574-1.8596 1.248-1.8863 1.2379-1.9126 1.2275-1.9385 1.2163-1.9639 1.2044-1.9887 1.192-2.0132 1.1789zm-60.674 22.7-0.3216-2.518 1.6019-0.2322 1.6271-0.2635 1.6515-0.2945 1.675-0.3257 1.6978-0.3566 1.7198-0.3875 1.7408-0.4181 1.761-0.4488 1.7807-0.4793 1.7991-0.5096 1.817-0.54 1.8341-0.57 1.8501-0.6002 1.8657-0.6301 1.8803-0.6599 1.894-0.6895 1.907-0.7192 1.9193-0.7485 1.9306-0.7779 1.9412-0.8071 1.9511-0.8362 1.96-0.8651 1.9683-0.8939 1.9755-0.9226 1.9823-0.9512 1.9882-0.9796 1.9931-1.0081 1.9974-1.0361 2.0008-1.0643 2.0035-1.0922 2.0054-1.1201 2.0065-1.1477 1.2694 2.193-2.0295 1.1609-2.0286 1.1331-2.0267 1.1048-2.0244 1.0769-2.0212 1.0485-2.0171 1.0201-2.0124 0.9916-2.0067 0.963-2.0005 0.9342-1.9933 0.9053-1.9854 0.8763-1.9769 0.8472-1.9674 0.8179-1.9572 0.7887-1.9463 0.7591-1.9346 0.7296-1.9222 0.6997-1.9089 0.6699-1.8949 0.6401-1.8803 0.6098-1.8647 0.5796-1.8484 0.5494-1.8315 0.5188-1.8137 0.4881-1.7952 0.4576-1.776 0.4265-1.7558 0.3955-1.7352 0.3646-1.7138 0.3331-1.6915 0.3017-1.6687 0.2703-1.6449 0.2384zm-35.751-10.284 2.297-1.14-0.0001-0.0001 0.4003 0.748 0.4444 0.7159 0.4886 0.6848 0.5324 0.6546 0.5764 0.6247 0.6201 0.5953 0.664 0.5662 0.7077 0.5371 0.7512 0.508 0.7945 0.4788 0.8374 0.4494 0.8801 0.4198 0.9221 0.3901 0.9636 0.3599 1.0042 0.3296 1.0444 0.2992 1.0837 0.2684 1.1223 0.2375 1.1601 0.2064 1.197 0.1752 1.2331 0.1441 1.2683 0.1126 1.3028 0.0814 1.3362 0.0499 1.3691 0.0185 1.4009-0.0129 1.4319-0.0443 1.462-0.0757 1.4916-0.1071 1.5199-0.1384 1.5476-0.1696 1.5744-0.2008 0.3216 2.518-1.619 0.2064-1.5938 0.1748-1.5681 0.1426-1.5416 0.1107-1.5144 0.0785-1.4867 0.0459-1.4579 0.0135-1.4289-0.0193-1.399-0.0523-1.3684-0.0854-1.3371-0.1188-1.3053-0.1525-1.2728-0.1864-1.2395-0.2206-1.2055-0.2551-1.1709-0.29-1.1354-0.3252-1.0992-0.3608-1.0622-0.3969-1.0245-0.4333-0.9855-0.4702-0.9458-0.5076-0.9049-0.5454-0.8628-0.5836-0.8193-0.6219-0.7748-0.6606-0.7285-0.6995-0.6808-0.7381-0.6318-0.7766-0.5812-0.8148-0.5292-0.8525-0.4759-0.8894-0.0001-0.0001zm0.4476-18.312 2.3916 0.874-0.2246 0.6081-0.2112 0.6028-0.1979 0.5974-0.1844 0.5918-0.171 0.586-0.1574 0.5802-0.144 0.5743-0.1305 0.5683-0.1171 0.5621-0.1035 0.5557-0.0901 0.5495-0.0767 0.543-0.0631 0.5363-0.0498 0.5297-0.0363 0.5227-0.0229 0.5159-0.0096 0.509 0.0038 0.5019 0.0171 0.4949 0.0304 0.4875 0.0437 0.4804 0.057 0.473 0.0702 0.4659 0.0833 0.4584 0.0965 0.4509 0.1098 0.4438 0.1229 0.4364 0.1361 0.429 0.1494 0.4217 0.1626 0.4143 0.1758 0.4071 0.1893 0.3999-2.297 1.14-0.2259-0.4775-0.2098-0.4853-0.1934-0.4931-0.1772-0.5005-0.1611-0.5076-0.1449-0.5146-0.129-0.5212-0.1131-0.5281-0.0971-0.5344-0.0814-0.5403-0.0658-0.5466-0.0503-0.5526-0.0348-0.5583-0.0195-0.5637-0.0044-0.5693 0.0108-0.5746 0.0257-0.5799 0.0407-0.5851 0.0554-0.5899 0.0701-0.5951 0.0847-0.5998 0.0991-0.6045 0.1135-0.6093 0.1279-0.6137 0.1419-0.6183 0.1562-0.6229 0.1702-0.6272 0.1842-0.6314 0.198-0.6356 0.2119-0.6398 0.2256-0.6438 0.2394-0.6479zm14.586-22.422 1.9064 1.674-0.6402 0.7246-0.6277 0.7225-0.615 0.7203-0.6024 0.718-0.5898 0.7155-0.5771 0.7131-0.5643 0.7104-0.5516 0.7077-0.5389 0.705-0.526 0.7019-0.5131 0.6989-0.5003 0.6957-0.4873 0.6926-0.4744 0.6891-0.4614 0.6858-0.4485 0.6821-0.4354 0.6785-0.4223 0.6746-0.4092 0.6709-0.3961 0.6667-0.383 0.6627-0.3697 0.6584-0.3566 0.6541-0.3433 0.6497-0.3302 0.6451-0.3167 0.6402-0.3034 0.6356-0.2902 0.6309-0.2769 0.6255-0.2634 0.6206-0.2501 0.6152-0.2367 0.6099-2.3916-0.874 0.2515-0.6483 0.2653-0.6524 0.2786-0.6564 0.2923-0.6605 0.3056-0.6643 0.319-0.6682 0.3325-0.6722 0.3458-0.6755 0.3589-0.6793 0.3722-0.6829 0.3855-0.6864 0.3986-0.6897 0.4117-0.6931 0.4248-0.6963 0.4379-0.6996 0.4508-0.7025 0.4639-0.7057 0.4768-0.7084 0.4896-0.7113 0.5025-0.7142 0.5155-0.7169 0.5281-0.7193 0.541-0.7219 0.5537-0.7244 0.5664-0.7267 0.5791-0.729 0.5917-0.7311 0.6044-0.7333 0.6168-0.7352 0.6296-0.7371 0.6419-0.7389 0.6544-0.7408zm1.9064 1.674-1.9064-1.674 0.0451-0.0481 0.0469-0.0453 0.0487-0.0426 0.0503-0.0397 0.0519-0.0369 0.0533-0.0341 0.0545-0.0312 0.0558-0.0285 0.0568-0.0256 0.0578-0.0227 0.0586-0.0199 0.0594-0.017 0.0599-0.0142 0.0605-0.0112 0.0609-0.008 0.0611-0.005 0.0614-0.003 0.0613 0.0003 0.0613 0.003 0.0612 0.006 0.0608 0.009 0.0604 0.012 0.0599 0.015 0.0593 0.0179 0.0586 0.0209 0.0577 0.0238 0.0567 0.0269 0.0556 0.0298 0.0544 0.0328 0.0531 0.0358 0.0517 0.0388 0.0502 0.0418 0.0479 0.0443 0.0452 0.0462 0.0422 0.048 0.0395 0.0496 0.0366 0.0512 0.0337 0.0526 0.0309 0.0539 0.0281 0.0551 0.0251 0.0563 0.0223 0.0572 0.0194 0.058 0.0165 0.0589 0.0136 0.0595 0.0107 0.06 0.0079 0.0604 0.0048 0.0607 0.002 0.061-0.0009 0.061-0.0039 0.0609-0.0068 0.0609-0.0098 0.0605-0.0127 0.0602-0.0157 0.0597-0.0187 0.0592-0.0216 0.0584-0.0246 0.0576-0.0275 0.0566-0.0306 0.0556-0.0336 0.0545-0.0365 0.0531-0.0396 0.0518-0.0426 0.0503z" fill="#b85e53" class="fil7"/>
        </g>
        <g id="g56">
          <path id="path58" d="m131.09 219.2-2.2532-1.1732 0.0313-0.0579 0.0338-0.0556 0.0361-0.0534 0.0385-0.051 0.0406-0.0486 0.0427-0.0462 0.0446-0.0437 0.0465-0.0413 0.0483-0.0388 0.0498-0.0362 0.0514-0.0336 0.0529-0.031 0.0541-0.0283 0.0553-0.0257 0.0565-0.0229 0.0574-0.0202 0.0583-0.0174 0.0591-0.0145 0.0598-0.0117 0.0603-0.009 0.0608-0.006 0.0611-0.003 0.0614 0.0002 0.0615 0.003 0.0616 0.006 0.0614 0.009 0.0613 0.0124 0.061 0.0157 0.0606 0.0188 0.06 0.0221 0.0595 0.0254 0.0587 0.0287 0.0572 0.0317 0.055 0.0342 0.0527 0.0366 0.0504 0.0389 0.048 0.0411 0.0457 0.0432 0.0432 0.0452 0.0408 0.047 0.0383 0.0488 0.0357 0.0505 0.0333 0.052 0.0306 0.0535 0.028 0.0548 0.0254 0.056 0.0226 0.0571 0.02 0.0581 0.0171 0.059 0.0144 0.0599 0.0116 0.0604 0.009 0.0611 0.006 0.0615 0.003 0.0619-0.0001 0.0621-0.003 0.0623-0.006 0.0623-0.009 0.0622-0.0123 0.062-0.0155 0.0617-0.0186 0.0613-0.0219 0.0608-0.025 0.0602-0.0284 0.0594zm-11.015 14.772-1.6042-1.985h-0.0001l0.3423-0.2884 0.3415-0.2981 0.3408-0.308 0.3401-0.3175 0.3391-0.3273 0.3384-0.3371 0.3375-0.3465 0.3362-0.3562 0.3354-0.366 0.3344-0.3755 0.333-0.3851 0.332-0.3946 0.3307-0.4042 0.3294-0.4136 0.3281-0.4232 0.3266-0.4325 0.3252-0.4422 0.3238-0.4515 0.3223-0.4608 0.3206-0.4702 0.319-0.4795 0.3173-0.4888 0.3157-0.4982 0.314-0.5073 0.312-0.5164 0.3102-0.5258 0.3084-0.5348 0.3064-0.544 0.3045-0.5532 0.3024-0.5621 0.3004-0.5711 0.2983-0.5802 2.2532 1.1732-0.3091 0.6012-0.3116 0.5925-0.314 0.5837-0.3165 0.5748-0.3188 0.5662-0.3214 0.5574-0.3236 0.5484-0.326 0.5396-0.3284 0.5307-0.3305 0.5216-0.3329 0.5128-0.3352 0.5037-0.3374 0.4946-0.3395 0.4858-0.3418 0.4765-0.3438 0.4674-0.3462 0.4585-0.3483 0.4492-0.3504 0.44-0.3523 0.4306-0.3546 0.4216-0.3566 0.4121-0.3586 0.4029-0.3606 0.3934-0.3628 0.3842-0.3647 0.3747-0.3666 0.3651-0.3687 0.3557-0.3705 0.3461-0.3726 0.3366-0.3745 0.3269-0.3763 0.3172h-0.0001zm-12.9 4.7651 0.1612-2.5592h-0.0002l0.3509 0.0177 0.3501 0.008 0.3502-0.002 0.35-0.0113 0.3496-0.0208 0.3492-0.0306 0.3492-0.0401 0.3492-0.0497 0.3491-0.0592 0.3488-0.0687 0.3488-0.0783 0.3488-0.0878 0.3484-0.0974 0.3487-0.1071 0.3488-0.1165 0.3483-0.1259 0.3484-0.1358 0.3484-0.1453 0.3482-0.1548 0.348-0.1645 0.3479-0.174 0.3479-0.1837 0.3474-0.1932 0.3471-0.2028 0.3469-0.2124 0.3467-0.222 0.3461-0.2317 0.3458-0.2412 0.3453-0.2507 0.3447-0.2602 0.3442-0.2699 0.3436-0.2793 1.6042 1.985-0.3782 0.3075-0.38 0.2979-0.3821 0.2886-0.3839 0.2787-0.3856 0.269-0.3877 0.2593-0.3893 0.2494-0.3911 0.2396-0.3931 0.2296-0.3948 0.2194-0.3963 0.2093-0.3981 0.1992-0.3998 0.1889-0.4016 0.1786-0.4028 0.1679-0.4046 0.1576-0.4063 0.1471-0.4074 0.1361-0.4087 0.1255-0.4106 0.1146-0.4114 0.1036-0.4126 0.0927-0.4138 0.0815-0.4149 0.0704-0.4156 0.0591-0.4166 0.0479-0.4176 0.0364-0.4182 0.025-0.4184 0.0135-0.4192 0.002-0.4197-0.01-0.4197-0.0213h-0.0002zm-26.09-28.687 2.3646-0.9216 0.5906 1.5156 0.6046 1.4798 0.6184 1.4433 0.6316 1.406 0.6446 1.3677 0.6572 1.3288 0.6696 1.2892 0.6814 1.2486 0.693 1.2073 0.704 1.1651 0.7148 1.1222 0.725 1.0785 0.735 1.0341 0.7444 0.9889 0.7532 0.9428 0.7617 0.8962 0.7698 0.8487 0.7771 0.8007 0.784 0.7518 0.7904 0.7025 0.7964 0.6526 0.8017 0.6023 0.8065 0.5513 0.811 0.5 0.8149 0.4486 0.8188 0.3966 0.8221 0.3447 0.8256 0.2923 0.8291 0.2401 0.8326 0.1873 0.8366 0.1345 0.8413 0.0812-0.1612 2.5592-0.9993-0.0964-0.9914-0.1593-0.9826-0.2211-0.9727-0.2815-0.962-0.3407-0.9509-0.3985-0.9392-0.455-0.9271-0.5102-0.9148-0.564-0.9025-0.6169-0.8897-0.6683-0.8772-0.7188-0.8646-0.7683-0.8518-0.8168-0.8391-0.8645-0.8262-0.9111-0.8135-0.957-0.8006-1.002-0.7876-1.0463-0.7746-1.0899-0.7614-1.1325-0.7482-1.1746-0.7346-1.2157-0.721-1.2563-0.7074-1.296-0.6934-1.3352-0.6794-1.3734-0.665-1.4111-0.6504-1.4478-0.6358-1.4841-0.6208-1.5194-0.6056-1.5542zm-10.004-63.594 2.534 0.0146v0.0001l-0.0014 2.2607 0.0211 2.2486 0.0437 2.2357 0.0657 2.2221 0.0876 2.2077 0.1092 2.1927 0.1305 2.1768 0.1515 2.1603 0.1724 2.143 0.1928 2.1249 0.2129 2.1063 0.233 2.0866 0.2525 2.0664 0.2721 2.0454 0.2912 2.0238 0.3099 2.0012 0.3285 1.9781 0.3467 1.9539 0.3648 1.9294 0.3826 1.9039 0.3999 1.8778 0.417 1.8508 0.434 1.823 0.4506 1.7948 0.4668 1.7655 0.4828 1.7356 0.4985 1.7049 0.514 1.6735 0.529 1.6413 0.5438 1.6084 0.5584 1.5746 0.5724 1.5403-2.3646 0.9216-0.5864-1.5775-0.5712-1.611-0.5558-1.6438-0.5402-1.6759-0.5242-1.7073-0.5083-1.7379-0.4918-1.768-0.4752-1.7973-0.4584-1.8258-0.4412-1.8538-0.4238-1.8808-0.4063-1.9074-0.3884-1.9331-0.3702-1.9582-0.3519-1.9825-0.3331-2.0061-0.3143-2.029-0.295-2.0512-0.2757-2.0728-0.2559-2.0934-0.236-2.1136-0.2157-2.1329-0.1952-2.1515-0.1744-2.1694-0.1533-2.1867-0.1321-2.203-0.1106-2.2189-0.0886-2.2339-0.0665-2.2483-0.0441-2.2617-0.0215-2.2748 0.0014-2.2869v0.0001zm10.598-62.176 2.344 0.974-0.5809 1.4665-0.5676 1.5022-0.5538 1.5371-0.5397 1.5715-0.5252 1.605-0.5106 1.6379-0.4956 1.6701-0.4801 1.7016-0.4645 1.7326-0.4487 1.7625-0.4323 1.7921-0.4157 1.8209-0.399 1.849-0.3819 1.8764-0.3644 1.9031-0.3466 1.9292-0.3286 1.9546-0.3104 1.9792-0.2918 2.0033-0.2728 2.0267-0.2537 2.0492-0.2342 2.0714-0.2145 2.0927-0.1945 2.1132-0.1742 2.1333-0.1536 2.1525-0.1327 2.1712-0.1114 2.1892-0.0902 2.2065-0.0682 2.2229-0.0464 2.239-0.024 2.2543-2.534-0.0146 0.0244-2.2803 0.0468-2.265 0.0692-2.2491 0.0912-2.2325 0.1128-2.2154 0.1343-2.1976 0.1554-2.1789 0.1764-2.1599 0.1969-2.14 0.2173-2.1195 0.2372-2.0984 0.2571-2.0766 0.2766-2.0543 0.2958-2.0311 0.3148-2.0074 0.3334-1.983 0.3518-1.958 0.37-1.9325 0.3879-1.906 0.4054-1.879 0.4227-1.8513 0.4399-1.8233 0.4567-1.7943 0.4731-1.7648 0.4895-1.7346 0.5056-1.7037 0.5212-1.6723 0.5368-1.6402 0.5521-1.6075 0.5672-1.5741 0.5818-1.5402 0.5965-1.5055zm26-26.048-0.0204 2.5644h-0.0001l-0.8267 0.0192-0.8219 0.0706-0.8173 0.1216-0.8134 0.1724-0.8098 0.2227-0.8065 0.273-0.803 0.323-0.7997 0.3731-0.7962 0.4229-0.7924 0.4724-0.7881 0.5218-0.7836 0.5709-0.7783 0.6196-0.773 0.668-0.767 0.7157-0.7603 0.763-0.7533 0.8099-0.7457 0.856-0.7377 0.9016-0.7292 0.9465-0.7202 0.9908-0.7108 1.0345-0.701 1.0773-0.6906 1.1196-0.6801 1.161-0.6689 1.202-0.6575 1.242-0.6457 1.2814-0.6336 1.3202-0.621 1.358-0.6081 1.3953-0.595 1.432-2.344-0.974 0.6116-1.4722 0.6263-1.4369 0.6406-1.4008 0.6546-1.364 0.6685-1.3268 0.6823-1.2888 0.6959-1.2502 0.7091-1.2108 0.7224-1.171 0.7354-1.1303 0.7484-1.0891 0.7612-1.0472 0.7738-1.0045 0.7865-0.9612 0.7991-0.9172 0.8115-0.8723 0.8239-0.8268 0.8362-0.7805 0.8486-0.7332 0.8609-0.6852 0.8732-0.6361 0.8851-0.586 0.8972-0.535 0.909-0.4827 0.9205-0.4293 0.9316-0.3748 0.9423-0.3188 0.9522-0.2619 0.9616-0.2036 0.9699-0.1444 0.9773-0.084 0.9835-0.0228h-0.0001zm15.607 8.4533-1.8946 1.7028-0.4138-0.4632-0.4156-0.449-0.4173-0.4345-0.4189-0.42-0.4204-0.4056-0.4218-0.391-0.4232-0.3765-0.4244-0.3618-0.4255-0.3472-0.4266-0.3326-0.4278-0.318-0.4284-0.3033-0.4292-0.2884-0.4301-0.2739-0.4306-0.2592-0.4311-0.2443-0.4318-0.2298-0.4323-0.2151-0.4324-0.2004-0.4329-0.1857-0.4334-0.1713-0.4334-0.1565-0.4338-0.1419-0.434-0.1274-0.4343-0.1128-0.4346-0.0983-0.4348-0.0837-0.4353-0.0692-0.4356-0.0546-0.4361-0.0401-0.4364-0.0256-0.4371-0.0108 0.0204-2.5644 0.5209 0.013 0.52 0.0304 0.5189 0.0477 0.5176 0.065 0.5161 0.082 0.5146 0.0991 0.5128 0.1159 0.5109 0.1328 0.5088 0.1492 0.5068 0.1659 0.5044 0.1821 0.502 0.1983 0.4997 0.2143 0.4972 0.2304 0.4943 0.2461 0.4918 0.2616 0.4891 0.2773 0.4862 0.2926 0.4835 0.3079 0.4806 0.323 0.4776 0.3381 0.4746 0.3528 0.4718 0.3678 0.4687 0.3824 0.4656 0.397 0.4626 0.4115 0.4596 0.426 0.4564 0.4402 0.4533 0.4546 0.4501 0.4687 0.447 0.4828 0.4436 0.4968zm12.389 23.005-2.3874 0.8592-0.3183-0.8937-0.3225-0.8815-0.3264-0.8692-0.3306-0.8568-0.3344-0.8444-0.3383-0.8318-0.3421-0.8193-0.3458-0.8066-0.3496-0.7938-0.3531-0.7811-0.3567-0.768-0.3602-0.7551-0.3636-0.7422-0.3668-0.729-0.3702-0.7157-0.3733-0.7025-0.3764-0.6889-0.3796-0.6756-0.3825-0.6623-0.3853-0.6486-0.3881-0.6348-0.3909-0.6211-0.3936-0.6073-0.3961-0.5934-0.3987-0.5795-0.401-0.5655-0.4034-0.5512-0.4057-0.5372-0.4078-0.523-0.4098-0.5085-0.4118-0.4942-0.4138-0.4798 1.8946-1.7028 0.4424 0.5128 0.4392 0.527 0.4358 0.5409 0.4326 0.5548 0.4293 0.5684 0.426 0.5822 0.4226 0.5959 0.4193 0.6093 0.4157 0.6228 0.4124 0.6363 0.4089 0.6497 0.4053 0.663 0.4017 0.6762 0.3981 0.6891 0.3944 0.7022 0.391 0.7155 0.3869 0.7283 0.3834 0.7411 0.3794 0.754 0.3756 0.7666 0.3718 0.7793 0.3677 0.792 0.3637 0.8045 0.3598 0.817 0.3556 0.8294 0.3515 0.8415 0.3473 0.854 0.343 0.8662 0.3388 0.8782 0.3344 0.8904 0.3301 0.9023 0.3255 0.9143zm-2.3874 0.8592 2.3874-0.8592 0.0203 0.0627 0.0169 0.063 0.0137 0.0632 0.0104 0.0633 0.007 0.0632 0.004 0.0632 0.001 0.0629-0.002 0.0625-0.005 0.0621-0.008 0.0616-0.0109 0.0609-0.0139 0.0602-0.0166 0.0594-0.0194 0.0584-0.0221 0.0573-0.0248 0.0562-0.0274 0.0549-0.03 0.0536-0.0325 0.0521-0.0349 0.0505-0.0374 0.0489-0.0398 0.047-0.0421 0.0452-0.0443 0.0433-0.0467 0.0411-0.0487 0.039-0.051 0.0366-0.053 0.0343-0.055 0.0318-0.0571 0.0291-0.0589 0.0265-0.0609 0.0237-0.062 0.0205-0.0622 0.0172-0.0625 0.0138-0.0625 0.0105-0.0625 0.0073-0.0623 0.0041-0.0622 0.001-0.0618-0.0021-0.0614-0.0052-0.0608-0.0082-0.0602-0.0111-0.0595-0.014-0.0586-0.0168-0.0577-0.0196-0.0567-0.0224-0.0555-0.0251-0.0543-0.0277-0.0529-0.0304-0.0515-0.0328-0.0499-0.0354-0.0483-0.0379-0.0465-0.0402-0.0447-0.0426-0.0427-0.0449-0.0406-0.0472-0.0385-0.0494-0.0362-0.0515-0.0339-0.0537-0.0314-0.0557-0.0288-0.0577-0.0262-0.0597-0.0234-0.0616z" fill="#b85e53" class="fil7"/>
        </g>
        <g id="g60">
          <path id="path62" d="m32.345 133.58 2.1344-1.3774 0.0348 0.0559 0.0316 0.0568 0.0285 0.0579 0.0253 0.0586 0.0221 0.0594 0.019 0.0599 0.0159 0.0605 0.0129 0.0608 0.0098 0.0611 0.0068 0.0613 0.0037 0.0613 0.0008 0.0612-0.0021 0.0611-0.0051 0.0608-0.008 0.0604-0.0109 0.0599-0.0138 0.0593-0.0166 0.0586-0.0194 0.0577-0.0222 0.0568-0.025 0.0557-0.0277 0.0545-0.0305 0.0533-0.0332 0.0519-0.0358 0.0504-0.0385 0.0488-0.0412 0.0471-0.0438 0.0452-0.0463 0.0433-0.0489 0.0413-0.0515 0.0391-0.054 0.0368-0.0558 0.034-0.0569 0.0309-0.0579 0.0277-0.0588 0.0245-0.0594 0.0214-0.0602 0.0183-0.0606 0.0152-0.0611 0.0121-0.0614 0.009-0.0615 0.006-0.0617 0.003-0.0616 0.0001-0.0614-0.003-0.0613-0.006-0.0608-0.009-0.0604-0.0115-0.0598-0.0142-0.059-0.0172-0.0583-0.0199-0.0574-0.0226-0.0563-0.0254-0.0552-0.0282-0.0539-0.0308-0.0526-0.0335-0.051-0.0362-0.0495-0.0388-0.0478-0.0414-0.046-0.044-0.044-0.0465-0.042-0.0491-0.0399-0.0515-0.0376-0.0541zm-7.404-16.595 2.5102-0.457 0.0886 0.4359 0.0971 0.4401 0.1054 0.4441 0.114 0.4477 0.1225 0.4517 0.1311 0.4556 0.1394 0.4595 0.1479 0.4629 0.1565 0.4665 0.165 0.4702 0.1735 0.4739 0.1819 0.4771 0.1904 0.4807 0.1988 0.4839 0.2074 0.4873 0.2157 0.4906 0.2242 0.4937 0.2327 0.4968 0.2411 0.5001 0.2495 0.503 0.2578 0.5059 0.2663 0.5089 0.2747 0.5117 0.283 0.5146 0.2914 0.5174 0.2997 0.5201 0.3081 0.5227 0.3163 0.5254 0.3247 0.5278 0.3329 0.5305 0.3412 0.5329 0.3494 0.5352-2.1344 1.3774-0.3618-0.5542-0.3536-0.5523-0.3453-0.5501-0.3371-0.5482-0.3289-0.5462-0.3205-0.5439-0.3123-0.5419-0.304-0.5398-0.2956-0.5374-0.2873-0.5353-0.2789-0.5331-0.2706-0.5307-0.2619-0.5284-0.2537-0.5259-0.2451-0.5236-0.2368-0.5213-0.2281-0.5186-0.2196-0.5161-0.2112-0.5139-0.2024-0.5111-0.1939-0.5085-0.1851-0.5059-0.1766-0.5032-0.1679-0.5007-0.1591-0.4979-0.1504-0.4951-0.1415-0.4922-0.1329-0.4897-0.1238-0.4869-0.115-0.4837-0.1061-0.4809-0.097-0.4781zm1.7916-13.458 2.2106 1.3v-0.0001l-0.1705 0.2987-0.1625 0.303-0.1545 0.3071-0.1466 0.3115-0.1387 0.3158-0.1307 0.32-0.1229 0.3245-0.1151 0.3287-0.107 0.3329-0.0992 0.3375-0.0912 0.3418-0.0834 0.3462-0.0754 0.3506-0.0675 0.3549-0.0595 0.3595-0.0516 0.3637-0.0434 0.3681-0.0355 0.3726-0.0274 0.3768-0.0193 0.3812-0.0111 0.3857-0.0031 0.39 0.0052 0.3942 0.0133 0.3984 0.0217 0.4028 0.0298 0.4069 0.0381 0.4111 0.0465 0.4152 0.0548 0.4193 0.0632 0.4235 0.0715 0.4274 0.08 0.4314-2.5102 0.457-0.088-0.4746-0.0789-0.4714-0.07-0.4685-0.0608-0.4655-0.0517-0.4624-0.0427-0.4593-0.0334-0.4561-0.0243-0.4528-0.0151-0.4498-0.0058-0.4464 0.0035-0.443 0.0127-0.4395 0.0221-0.4362 0.0314-0.4326 0.0409-0.429 0.0502-0.4255 0.0598-0.4217 0.0691-0.4177 0.0787-0.4141 0.0882-0.41 0.0978-0.4062 0.1074-0.4018 0.1168-0.3977 0.1266-0.3937 0.1361-0.3891 0.1457-0.3845 0.1553-0.38 0.1649-0.3754 0.1744-0.3707 0.1841-0.3659 0.1935-0.3608 0.2031-0.3559v-0.0001zm36.405-9.3113-0.3366 2.5158-1.574-0.2107-1.5483-0.1806-1.522-0.1504-1.4947-0.1202-1.4668-0.09-1.4379-0.0596-1.4084-0.0293-1.3779 0.0011-1.3468 0.0314-1.3146 0.0618-1.2819 0.0922-1.2482 0.1226-1.2139 0.1527-1.1784 0.1829-1.1426 0.2131-1.1056 0.243-1.068 0.2729-1.0297 0.3027-0.9906 0.3321-0.951 0.3614-0.9105 0.3905-0.8696 0.4193-0.8283 0.4479-0.7864 0.4764-0.7443 0.5046-0.7018 0.5327-0.6594 0.5609-0.6167 0.5891-0.574 0.6176-0.5313 0.6462-0.4884 0.6755-0.4456 0.7057-2.2106-1.3 0.5296-0.8385 0.58-0.8023 0.6291-0.7654 0.6768-0.728 0.7229-0.6907 0.7678-0.6531 0.8112-0.6159 0.8535-0.5786 0.8944-0.5418 0.9341-0.5053 0.973-0.4693 1.0109-0.4335 1.0478-0.3982 1.0838-0.3635 1.1193-0.3289 1.1538-0.2949 1.1876-0.261 1.2208-0.2277 1.2534-0.1947 1.2851-0.1617 1.3164-0.1292 1.3469-0.0968 1.3768-0.0648 1.406-0.0328 1.4347-0.0011 1.4626 0.0303 1.4901 0.0618 1.5166 0.093 1.5425 0.124 1.568 0.155 1.5927 0.1858 1.6166 0.2165zm60.701 22.702-1.2644 2.196-2.0048-1.141-2.0036-1.1134-2.0016-1.086-1.9991-1.0582-1.9957-1.0305-1.9916-1.0026-1.9865-0.9747-1.9809-0.9465-1.9743-0.9184-1.9671-0.8901-1.9592-0.8618-1.9502-0.8332-1.9408-0.8046-1.9304-0.7758-1.9193-0.7471-1.9073-0.7183-1.8947-0.6892-1.8812-0.6601-1.8671-0.6308-1.8519-0.6016-1.8363-0.5722-1.8196-0.5426-1.8022-0.5132-1.7841-0.4833-1.7652-0.4535-1.7454-0.4238-1.7248-0.3937-1.7036-0.3636-1.6814-0.3335-1.6586-0.3033-1.6347-0.273-1.6102-0.2426 0.3366-2.5158 1.6516 0.2488 1.6747 0.2796 1.697 0.3103 1.7188 0.3409 1.7398 0.3714 1.76 0.4017 1.7794 0.432 1.7982 0.4621 1.8165 0.4921 1.8336 0.522 1.8504 0.5518 1.8661 0.5816 1.8813 0.611 1.8957 0.6406 1.9094 0.6699 1.9223 0.6994 1.9345 0.7283 1.9459 0.7575 1.9566 0.7864 1.9666 0.8154 1.9758 0.844 1.9842 0.8728 1.9919 0.9013 1.9989 0.9298 2.0051 0.9581 2.0107 0.9865 2.0152 1.0146 2.0193 1.0427 2.0225 1.0706 2.025 1.0986 2.0266 1.1262 2.0276 1.154zm49.996 41.195-2.0198 1.5374-1.0021-1.2711-1.0417-1.2774-1.0809-1.2829-1.1195-1.2878-1.1578-1.2921-1.1953-1.2957-1.2325-1.2984-1.2693-1.3008-1.3053-1.3023-1.341-1.3034-1.3761-1.3036-1.4107-1.3033-1.4449-1.3022-1.4785-1.3007-1.5115-1.2984-1.5443-1.2955-1.5763-1.292-1.6079-1.2878-1.639-1.283-1.6695-1.2776-1.6997-1.2716-1.7292-1.2649-1.7582-1.2576-1.7869-1.2496-1.8149-1.2411-1.8425-1.232-1.8695-1.222-1.8961-1.2117-1.9221-1.2007-1.9476-1.1889-1.9727-1.1767-1.9972-1.1638 1.2644-2.196 2.0202 1.1772 1.9955 1.1903 1.9704 1.2029 1.9447 1.2147 1.9185 1.2261 1.8921 1.2368 1.8649 1.247 1.8373 1.2563 1.8093 1.2654 1.7808 1.2736 1.7516 1.2813 1.7221 1.2884 1.6921 1.2948 1.6616 1.3008 1.6305 1.306 1.5991 1.3106 1.5671 1.3147 1.5347 1.3182 1.5017 1.3211 1.4683 1.3234 1.4343 1.3251 1.3999 1.3262 1.365 1.3266 1.3297 1.3267 1.2937 1.3258 1.2575 1.3248 1.2205 1.3229 1.1832 1.3205 1.1455 1.3176 1.1071 1.3141 1.0683 1.31 1.0289 1.3053zm8.9688 36.103-2.1358-1.4192-0.0001 0.0001 0.4477-0.7206 0.3978-0.7428 0.3488-0.7656 0.3006-0.7884 0.2529-0.8115 0.2055-0.8348 0.1583-0.858 0.1112-0.8814 0.0644-0.9046 0.0174-0.9275-0.0295-0.95-0.0764-0.9721-0.1233-0.9935-0.17-1.0145-0.2167-1.0344-0.2631-1.0541-0.3095-1.0727-0.3555-1.0907-0.4012-1.1079-0.4468-1.1242-0.4918-1.14-0.5365-1.1547-0.581-1.1688-0.625-1.1823-0.6684-1.1948-0.7116-1.2068-0.7543-1.2178-0.7967-1.2285-0.8384-1.238-0.8797-1.247-0.9208-1.2555-0.9611-1.2632 2.0198-1.5374 0.9883 1.2988 0.9482 1.2929 0.9077 1.2866 0.8666 1.2798 0.8251 1.2723 0.7831 1.2644 0.7408 1.256 0.6976 1.247 0.6542 1.2377 0.6102 1.2278 0.5657 1.2175 0.5206 1.2066 0.475 1.1954 0.4286 1.1837 0.3819 1.1715 0.3343 1.1591 0.2861 1.1459 0.2371 1.1324 0.1874 1.1183 0.1369 1.1039 0.0856 1.0887 0.0333 1.0728-0.0198 1.0563-0.074 1.039-0.129 1.0206-0.1847 1.0012-0.2415 0.9806-0.2987 0.9587-0.3568 0.9354-0.415 0.9108-0.4736 0.8846-0.5323 0.8568-0.0001 0.0001zm-15.194 8.618-0.496-2.4982v-0.0001l0.5993-0.1166 0.5887-0.1249 0.5781-0.1328 0.5672-0.141 0.5563-0.149 0.5454-0.157 0.5344-0.1648 0.5232-0.1728 0.512-0.1806 0.5007-0.1882 0.4894-0.1961 0.4779-0.2038 0.4663-0.2112 0.4547-0.2188 0.443-0.2264 0.4314-0.2338 0.4197-0.2412 0.4078-0.2485 0.3959-0.2557 0.3841-0.2631 0.3721-0.2701 0.3603-0.2774 0.3483-0.2845 0.3364-0.2916 0.3244-0.2987 0.3126-0.3058 0.3005-0.3128 0.2886-0.3201 0.2767-0.327 0.2647-0.3343 0.2529-0.3415 0.2409-0.3488 2.1358 1.4192-0.2879 0.4166-0.3015 0.4073-0.3151 0.3979-0.3285 0.3884-0.3418 0.3789-0.3547 0.3692-0.3676 0.3598-0.3802 0.3499-0.3926 0.3404-0.4049 0.3307-0.4169 0.321-0.4289 0.3115-0.4407 0.3017-0.4523 0.2923-0.4638 0.2825-0.4749 0.273-0.4862 0.2636-0.4974 0.254-0.5081 0.2446-0.5191 0.2352-0.5295 0.2256-0.5402 0.2165-0.5507 0.2072-0.561 0.1978-0.5712 0.1886-0.5814 0.1794-0.5914 0.1702-0.6015 0.161-0.6114 0.152-0.6211 0.1428-0.6307 0.1337-0.6405 0.1248v-0.0001zm-25.126-0.7889 0.4418-2.4986 0.8904 0.1607 0.8827 0.1516 0.8749 0.1428 0.8671 0.1339 0.859 0.1249 0.8509 0.116 0.8427 0.1072 0.8345 0.0983 0.8261 0.0894 0.8176 0.0806 0.8091 0.0718 0.8004 0.0631 0.7915 0.0542 0.7829 0.0455 0.7737 0.0367 0.7648 0.0281 0.7555 0.0194 0.7462 0.0106 0.7369 0.002 0.7274-0.007 0.718-0.0151 0.7081-0.0237 0.6984-0.0323 0.6886-0.0408 0.6786-0.0493 0.6685-0.0577 0.6584-0.0661 0.6479-0.0746 0.6376-0.0829 0.6273-0.0913 0.6166-0.0995 0.6059-0.1077 0.496 2.4982-0.6467 0.1151-0.6564 0.1059-0.6661 0.0969-0.6756 0.0879-0.6853 0.0788-0.6944 0.0697-0.7039 0.0609-0.713 0.0517-0.7222 0.0428-0.7314 0.0339-0.7405 0.0247-0.7492 0.0159-0.7582 0.007-0.7669-0.002-0.7756-0.0112-0.7843-0.02-0.7928-0.0291-0.8013-0.0381-0.8097-0.0471-0.8181-0.056-0.8262-0.0651-0.8343-0.074-0.8424-0.083-0.8505-0.0922-0.8583-0.1011-0.8661-0.11-0.8739-0.1192-0.8816-0.1283-0.8891-0.1373-0.8965-0.1462-0.9041-0.1554-0.9114-0.1645zm0.4418-2.4986-0.4418 2.4986-0.0645-0.0136-0.0631-0.0166-0.0616-0.0196-0.0601-0.0224-0.0584-0.0252-0.0568-0.0279-0.055-0.0305-0.0532-0.0329-0.0514-0.0353-0.0494-0.0376-0.0474-0.0399-0.0454-0.0419-0.0432-0.044-0.041-0.0458-0.0387-0.0477-0.0364-0.0495-0.0341-0.0511-0.0315-0.0526-0.0291-0.0541-0.0264-0.0555-0.0238-0.0567-0.0211-0.058-0.0182-0.059-0.0155-0.06-0.0125-0.0609-0.01-0.0617-0.006-0.0624-0.003-0.063-0.0002-0.0636 0.003-0.064 0.006-0.0643 0.01-0.0646 0.013-0.064 0.0161-0.0625 0.019-0.0611 0.022-0.0594 0.0247-0.0579 0.0275-0.0561 0.03-0.0544 0.0326-0.0526 0.035-0.0506 0.0373-0.0488 0.0396-0.0467 0.0417-0.0446 0.0438-0.0425 0.0457-0.0403 0.0476-0.038 0.0494-0.0357 0.051-0.0333 0.0527-0.0308 0.0541-0.0283 0.0555-0.0257 0.0569-0.0231 0.058-0.0203 0.0592-0.0176 0.0602-0.0147 0.0611-0.0118 0.062-0.009 0.0628-0.006 0.0633-0.003 0.064 0.0005 0.0644 0.004 0.0648 0.007 0.0651 0.0103z" fill="#b85e53" class="fil7"/>
        </g>
      </g>
    </g>
    <g id="g7885" transform="matrix(1.0806 0 0 1.0806 27.213 -313.78)">
      <path id="path9341" d="m246.62 578.46c0.9202-1.8906 1.9122-3.725 3.1019-5.4614 1.9813-2.5741 4.0881-5.0493 6.2859-7.4399 3.1671-3.444 6.0807-7.0918 8.8398-10.866 2.1335-3.0159 4.4364-5.8902 7.0294-8.5211 2.8454-2.7617 6.3657-5.026 10.182-6.1607 1.6627-0.4236 3.2916-0.8486 5.0168-0.7906 1.636 0.5091 2.757 1.8429 3.837 3.0978 1.3751 1.5855 2.6749 3.2363 3.781 5.021 1.3448 2.3236 2.7713 4.5888 4.5611 6.5961 0.8158 0.8329 1.5898 1.9583 2.7266 2.4026 0.3936 0.1538 0.9153 0.1513 1.325 0.1755 2.2496-0.3096 4.2237-1.6361 6.2555-2.5854 0.021-0.01 3.9364-1.9216 3.8189-1.9379-0.7631-0.1061-2.1894 1.7793-2.0754 1.0173 0.137-0.916 1.4668-1.1318 2.1807-1.7219 0.8125-0.6715 1.5984-1.3746 2.3977-2.062 0.9093-0.738 1.8187-1.4762 2.7281-2.2144 5.2397-4.6631 10.225-9.6125 14.877-14.862 2.9023-3.5915 5.7486-7.2421 8.2192-11.147 1.0541-1.6886 1.8746-3.5027 2.7978-5.2612 0.617-1.1969 1.106-2.4614 1.4332-3.7674 0.4731-1.6034 0.7141-3.2497 0.8496-4.9115 0.1944-1.8031 0.4827-3.567 1.0476-5.291 0.5163-1.3948 1.2007-2.7157 1.8569-4.0473 0.5385-1.1616 1.2097-2.2482 1.8589-3.3486 0.3244-0.7325 0.4275-1.5353 0.666-2.298l4.9327-2.2914c-0.3504 0.7631-0.387 1.5996-0.6627 2.3875-0.6129 1.1222-1.3659 2.1604-1.8974 3.3278-0.6384 1.3345-1.3552 2.6308-1.9166 4.0021-0.5984 1.6861-0.9579 3.3866-1.1099 5.1746-0.1372 1.6707-0.3129 3.3451-0.786 4.9602-0.2583 1.366-0.7841 2.6526-1.361 3.9133-1.0829 1.7535-1.8548 3.6966-3.0358 5.3984-2.6138 3.9629-5.5737 7.6765-8.5503 11.372-4.7086 5.2555-9.7449 10.202-14.945 14.97-0.8814 0.721-1.7771 1.4253-2.6443 2.1632-0.7789 0.6628-3.4655 3.1563-4.408 3.7822-3.298 2.19-6.6747 4.1567-10.236 5.8546-2.1156 1.0452-4.2444 2.4985-6.674 2.5348-2.066-0.3298-2.8501-1.4396-4.1316-2.9973-1.7497-2.0721-3.2341-4.3268-4.6251-6.6528-1.1075-1.7569-2.4681-3.3262-3.8066-4.9104-0.9972-1.142-2.0795-2.4034-3.6458-2.6854-1.6605 0-3.2471 0.4567-4.8428 0.8809-1.8181 0.643-4.8952 2.5222 1.7577-1.3615 0.3238-0.189-0.6531 0.37-0.963 0.5811-0.9874 0.6727-1.1442 0.8887-2.0351 1.7256-2.6865 2.6182-5.0751 5.4974-7.2724 8.539-2.7548 3.7389-5.6001 7.4002-8.6985 10.865-2.1534 2.3582-4.1984 4.8141-6.1779 7.3201-1.1677 1.6419-2.1389 3.3912-2.8684 5.2727l-4.9934 2.2592z" style="color:#000000" fill="#b85e53"/>
      <rect id="rect6200-3-9" style="color:#000000" rx="29.147" ry="25.416" height="116.3" width="137.39" stroke="#b85e53" y="474.49" x="235.36" stroke-width="4" fill="none"/>
    </g>
  </g>
  <metadata>
    <rdf:RDF>
      <cc:Work>
        <dc:format>image/svg+xml</dc:format>
        <dc:type rdf:resource="http://purl.org/dc/dcmitype/StillImage"/>
        <cc:license rdf:resource="http://creativecommons.org/licenses/publicdomain/"/>
        <dc:publisher>
          <cc:Agent rdf:about="http://openclipart.org/">
            <dc:title>Openclipart</dc:title>
          </cc:Agent>
        </dc:publisher>
        <dc:title>Section markers, schematic</dc:title>
        <dc:date>2011-09-16T11:01:48</dc:date>
        <dc:description>Small set of markers for sections or lists in presentations and other kind of infographics</dc:description>
        <dc:source>http://openclipart.org/detail/160963/section-markers-schematic-by-graveman</dc:source>
        <dc:creator>
          <cc:Agent>
            <dc:title>Graveman</dc:title>
          </cc:Agent>
        </dc:creator>
        <dc:subject>
          <rdf:Bag>
            <rdf:li>aim</rdf:li>
            <rdf:li>bar</rdf:li>
            <rdf:li>bio-hazard</rdf:li>
            <rdf:li>clip art</rdf:li>
            <rdf:li>clipart</rdf:li>
            <rdf:li>dynamics</rdf:li>
            <rdf:li>mechanics</rdf:li>
            <rdf:li>purpose</rdf:li>
            <rdf:li>results</rdf:li>
            <rdf:li>section</rdf:li>
            <rdf:li>tool</rdf:li>
          </rdf:Bag>
        </dc:subject>
      </cc:Work>
      <cc:License rdf:about="http://creativecommons.org/licenses/publicdomain/">
        <cc:permits rdf:resource="http://creativecommons.org/ns#Reproduction"/>
        <cc:permits rdf:resource="http://creativecommons.org/ns#Distribution"/>
        <cc:permits rdf:resource="http://creativecommons.org/ns#DerivativeWorks"/>
      </cc:License>
    </rdf:RDF>
  </metadata>
</svg>
